<?xml version="1.0" encoding="utf-8"?>
<!-- Generator: Adobe Illustrator 21.0.0, SVG Export Plug-In . SVG Version: 6.00 Build 0)  -->
<svg version="1.1" id="Lager_1" xmlns="http://www.w3.org/2000/svg" xmlns:xlink="http://www.w3.org/1999/xlink" x="0px" y="0px"
	 viewBox="0 0 400 200" style="enable-background:new 0 0 400 200;" xml:space="preserve">
<style type="text/css">
	.st0{fill:#FE6272;}
</style>
<polygon class="st0" points="44.3,79.4 38.9,47.4 76.3,84.8 "/>
<polygon class="st0" points="232.9,78.7 214.2,41 196,99.1 "/>
<polygon class="st0" points="102.1,133.2 44.7,131.6 114.4,189.3 "/>
<polygon class="st0" points="294.8,92.3 358,89.6 269.7,34.2 "/>
<polygon class="st0" points="105.3,37.6 122.6,70.5 131.5,11.2 "/>
<polygon class="st0" points="28.8,183 18.2,158.3 5,195.4 "/>
<polygon class="st0" points="267.2,170.6 272.6,135.8 233,179.3 "/>
<polygon class="st0" points="385.6,22.1 353.6,6.4 377.4,56.8 "/>
<polygon class="st0" points="233.9,13.1 218.5,12.4 236.8,28.2 "/>
<polygon class="st0" points="215.5,143.5 231.4,125.1 191.6,139.5 "/>
<polygon class="st0" points="142.4,93.2 157.8,91.8 135.9,79.1 "/>
<polygon class="st0" points="362.3,155.4 356.7,196.9 395.5,129.8 "/>
<polygon class="st0" points="141.9,154.9 169,173 157.4,126.2 "/>
<polygon class="st0" points="25.3,4.2 2,37.7 66,0.8 "/>
<polygon class="st0" points="317.3,151.9 338.4,156.6 317.5,130.3 "/>
</svg>
